<?xml version="1.0" encoding="UTF-8" standalone="no"?>
<svg
   width="24"
   height="24"
   viewBox="0 0 24 24"
   fill="none"
   stroke="currentColor"
   stroke-width="2"
   stroke-linecap="round"
   stroke-linejoin="round"
   class="lucide lucide-folder-lock-icon lucide-folder-lock"
   version="1.1"
   id="svg2"
   sodipodi:docname="folder-database.svg"
   xml:space="preserve"
   inkscape:version="1.4.2 (ebf0e940d0, 2025-05-08)"
   xmlns:inkscape="http://www.inkscape.org/namespaces/inkscape"
   xmlns:sodipodi="http://sodipodi.sourceforge.net/DTD/sodipodi-0.dtd"
   xmlns="http://www.w3.org/2000/svg"
   xmlns:svg="http://www.w3.org/2000/svg"><defs
     id="defs2" /><sodipodi:namedview
     id="namedview2"
     pagecolor="#ffffff"
     bordercolor="#000000"
     borderopacity="0.25"
     inkscape:showpageshadow="2"
     inkscape:pageopacity="0.0"
     inkscape:pagecheckerboard="0"
     inkscape:deskcolor="#d1d1d1"
     inkscape:zoom="1.4805048"
     inkscape:cx="-30.395038"
     inkscape:cy="35.7986"
     inkscape:window-width="1920"
     inkscape:window-height="1012"
     inkscape:window-x="0"
     inkscape:window-y="0"
     inkscape:window-maximized="1"
     inkscape:current-layer="svg2" /><path
     d="M 7.3501626,20 H 4 C 2.8954305,20 2,19.104569 2,18 V 5 C 2,3.8954305 2.8954305,3 4,3 H 7.9 C 8.5796674,2.99334 9.2161976,3.332317 9.59,3.9 l 0.81,1.2 c 0.369922,0.5617203 0.997414,0.8998892 1.67,0.9 H 20 c 1.104569,0 2,0.8954305 2,2 v 0.028903"
     id="path1"
     sodipodi:nodetypes="cssssccccssc" /><g
     style="fill:none;stroke:currentColor;stroke-width:2;stroke-linecap:round;stroke-linejoin:round"
     id="g2"
     transform="matrix(0.64878213,0,0,0.64878213,9.0186198,8.3787935)"><ellipse
       cx="12"
       cy="5"
       rx="9"
       ry="3"
       id="ellipse1"
       style="stroke-width:3.08269896;stroke-dasharray:none" /><path
       d="m 3,5 v 14 a 9,3 0 0 0 18,0 V 5"
       id="path1-5"
       style="stroke-width:3.08269896;stroke-dasharray:none" /><path
       d="m 3,12 a 9,3 0 0 0 18,0"
       id="path2-3"
       style="stroke-width:3.08269896;stroke-dasharray:none" /></g></svg>
